<svg xmlns="http://www.w3.org/2000/svg" xmlns:xlink="http://www.w3.org/1999/xlink" xmlns:lucid="lucid" width="2321.28" height="1360"><g transform="translate(0 0)" lucid:page-tab-id="mXwzAnnOLpm1"><path d="M0 0h2321.28v1360H0z" fill="#fff"/><path d="M914.42 1155.6h240v60h-240z" fill="none"/><use xlink:href="#a" transform="matrix(1,0,0,1,914.4172587377636,1155.6128349063802) translate(39.60555555555568 46.39999999999993)"/><use xlink:href="#b" transform="matrix(1,0,0,1,914.4172587377636,1155.6128349063802) translate(38.155555555555694 115.99999999999983)"/><path d="M1745.92 684.33c87.18 35.16 143.6 116.3 143.6 209.17 0 106.4-75.22 197.45-179.5 220.9l-34.2 7.2H439.86c-143.6 0-259.85-114.5-259.85-252.45C180 731.2 296.25 616.7 439.85 616.7c11.96 0 18.8 0 30.77 2.7 42.74-66.7 116.24-104.58 198.3-104.58 22.23 0 42.74 2.7 64.96 9.02v-9.02c0-164.1 135.05-294.82 304.3-294.82 116.24 0 223.94 68.52 273.52 171.3 42.74-24.34 92.3-37.86 143.6-37.86 162.4 0 294.04 128.03 294.04 284.9 1.7 14.43 0 28.86-3.42 46z" stroke="#000" stroke-opacity="0" fill="#0078d7"/><path d="M453.3 76c0-4.42 3.58-8 8-8h836.75c4.42 0 8 3.58 8 8v25.16c0 4.4-3.58 8-8 8H461.3c-4.42 0-8-3.6-8-8z" stroke="#000" stroke-opacity="0" stroke-width="2" fill="#fff" fill-opacity="0"/><use xlink:href="#c" transform="matrix(1,0,0,1,457.2972147643302,72) translate(226.8853086419753 25.782777777777778)"/><use xlink:href="#d" transform="matrix(1,0,0,1,457.2972147643302,72) translate(369.35938271604937 25.782777777777778)"/><use xlink:href="#e" transform="matrix(1,0,0,1,457.2972147643302,72) translate(413.8643209876543 25.782777777777778)"/><use xlink:href="#f" transform="matrix(1,0,0,1,457.2972147643302,72) translate(521.5211111111112 25.782777777777778)"/><use xlink:href="#g" transform="matrix(1,0,0,1,457.2972147643302,72) translate(552.0408641975309 25.782777777777778)"/><path d="M695.86 107.8h373.3M695.9 107.8h-1.04M1069.15 107.8h1.02" stroke="#a9afb8" stroke-width="2" fill="none"/><path d="M453.3 117.16c0-4.42 3.58-8 8-8H1299c4.42 0 8 3.58 8 8V120c0 4.42-3.58 8-8 8H461.3c-4.42 0-8-3.58-8-8z" stroke="#000" stroke-opacity="0" stroke-width="2" fill="#fff" fill-opacity="0"/><use xlink:href="#h" transform="matrix(1,0,0,1,457.29721476433065,113.15522395689881) translate(292.3186934156379 14.917037037037037)"/><use xlink:href="#i" transform="matrix(1,0,0,1,457.29721476433065,113.15522395689881) translate(344.92095679012345 14.917037037037037)"/><use xlink:href="#j" transform="matrix(1,0,0,1,457.29721476433065,113.15522395689881) translate(409.4203395061728 14.917037037037037)"/><use xlink:href="#k" transform="matrix(1,0,0,1,457.29721476433065,113.15522395689881) translate(421.86982510288067 14.917037037037037)"/><use xlink:href="#l" transform="matrix(1,0,0,1,457.29721476433065,113.15522395689881) translate(500.8157098765432 14.917037037037037)"/><use xlink:href="#m" transform="matrix(1,0,0,1,457.29721476433065,113.15522395689881) translate(526.309537037037 14.917037037037037)"/><path d="M648.56 580h240v420h-240zM944.27 580h684.9v420h-684.9z" stroke="#000" stroke-width="2" fill="#fff"/><use xlink:href="#n" transform="matrix(1,0,0,1,949.2656006445495,585) translate(321.025 206.5875)"/><path d="M980 680h123.15v112.54H980z" stroke="#000" stroke-width="6" fill="#c7e8ac"/><use xlink:href="#o" transform="matrix(1,0,0,1,985,685) translate(25.249999999999996 43.36875)"/><use xlink:href="#p" transform="matrix(1,0,0,1,985,685) translate(24.574999999999996 64.96875)"/><path d="M1183.15 687.1h141.4v103.7h-141.4z" stroke="#000" stroke-width="6" fill="#ffc374"/><use xlink:href="#q" transform="matrix(1,0,0,1,1188.1538941789265,692.1016912312057) translate(32.65 49.65)"/><path d="M1415.5 681.46h117.13v103.7H1415.5z" stroke="#000" stroke-width="6" fill="#7ab648"/><use xlink:href="#r" transform="matrix(1,0,0,1,1420.5090422920211,686.4621580295385) translate(20.65 40.8375)"/><use xlink:href="#s" transform="matrix(1,0,0,1,1420.5090422920211,686.4621580295385) translate(28.075 62.4375)"/><path d="M980 820h123.15v140H980z" stroke="#000" stroke-width="6" fill="#f5b5c8"/><use xlink:href="#t" transform="matrix(1,0,0,1,985,825) translate(31.549999999999997 59.0875)"/><use xlink:href="#u" transform="matrix(1,0,0,1,985,825) translate(34.525 80.6875)"/><path d="M1415.5 820h117.13v140H1415.5z" stroke="#000" stroke-width="6" fill="#7ab648"/><use xlink:href="#t" transform="matrix(1,0,0,1,1420.5090422920211,825) translate(28.549999999999997 46.9)"/><use xlink:href="#v" transform="matrix(1,0,0,1,1420.5090422920211,825) translate(31.525 68.5)"/><use xlink:href="#s" transform="matrix(1,0,0,1,1420.5090422920211,825) translate(28.075 90.10000000000001)"/><path d="M693.05 680h126.32v97H693.05z" stroke="#000" stroke-width="6" fill="#c7e8ac"/><use xlink:href="#o" transform="matrix(1,0,0,1,698.0542537521278,685) translate(26.749999999999996 36.4)"/><use xlink:href="#p" transform="matrix(1,0,0,1,698.0542537521278,685) translate(26.074999999999996 58)"/><path d="M696.05 833.32h123.32V951.4H696.05z" stroke="#000" stroke-width="2" fill="#ffc374"/><use xlink:href="#w" transform="matrix(1,0,0,1,701.0482255574469,838.3197990977287) translate(8.574999999999996 34.8375)"/><use xlink:href="#x" transform="matrix(1,0,0,1,701.0482255574469,838.3197990977287) translate(22.599999999999994 56.4375)"/><use xlink:href="#y" transform="matrix(1,0,0,1,701.0482255574469,838.3197990977287) translate(8.099999999999994 78.03750000000001)"/><path d="M1109.15 736.27h33.97c.02 0 .03-.02.03-.04s.02-.03.04-.03h9.98" stroke="#666" stroke-width="6" fill="none"/><path d="M1109.23 739.27h-3.08v-6h3.08z" fill="#666"/><path d="M1170.45 736.2l-14.27 4.63v-9.27z" stroke="#666" stroke-width="6" fill="#666"/><path d="M1920 666.35h220V1000h-220z" stroke="#000" stroke-width="6" fill="#fff"/><use xlink:href="#z" transform="matrix(1,0,0,1,1925,671.3496352914898) translate(34.58703703703705 151.62916666666666)"/><use xlink:href="#A" transform="matrix(1,0,0,1,1925,671.3496352914898) translate(54.69259259259261 189.22916666666666)"/><path d="M1538.63 733.3h186.7c.54 0 .98.45.98 1 0 .53.45.97 1 .97h162.73" stroke="#666" stroke-width="6" fill="none"/><path d="M1538.7 736.3h-3.07v-6h3.07z" fill="#666"/><path d="M1907.3 735.27l-14.27 4.64v-9.27z" stroke="#666" stroke-width="6" fill="#666"/><path d="M756.2 783v22.35" stroke="#666" stroke-width="6" fill="none"/><path d="M759.2 783.08h-6V780h6z" fill="#666"/><path d="M756.2 822.6l-4.62-14.26h9.27z" stroke="#666" stroke-width="6" fill="#666"/><path d="M823.37 892.36h126.66" stroke="#666" stroke-width="6" fill="none"/><path d="M823.45 895.36h-3.08v-6h3.08z" fill="#666"/><path d="M967.3 892.36L953.02 897v-9.27z" stroke="#666" stroke-width="6" fill="#666"/><path d="M1330.56 738.95h54.97" stroke="#666" stroke-width="6" fill="none"/><path d="M1330.64 741.95h-3.08v-6h3.08z" fill="#666"/><path d="M1402.8 738.95l-14.26 4.63v-9.27z" stroke="#666" stroke-width="6" fill="#666"/><path d="M1109.15 890h276.38" stroke="#666" stroke-width="6" fill="none"/><path d="M1109.23 893h-3.08v-6h3.08z" fill="#666"/><path d="M1402.8 890l-14.26 4.64v-9.28z" stroke="#666" stroke-width="6" fill="#666"/><path d="M1538.63 890h351.4" stroke="#666" stroke-width="6" fill="none"/><path d="M1538.7 893h-3.07v-6h3.07z" fill="#666"/><path d="M1907.3 890l-14.27 4.64v-9.28z" stroke="#666" stroke-width="6" fill="#666"/><path d="M636.2 580h240v60h-240z" stroke="#000" stroke-opacity="0" stroke-width="2" fill="#fff" fill-opacity="0"/><g><use xlink:href="#B" transform="matrix(1,0,0,1,641.2131623472087,585) translate(85.55 30.025)"/></g><path d="M1140 580h240v60h-240z" stroke="#000" stroke-opacity="0" stroke-width="2" fill="#fff" fill-opacity="0"/><g><use xlink:href="#C" transform="matrix(1,0,0,1,1145,585) translate(76.525 30.025)"/></g><defs><path d="M199 0l-22-63H83L61 0H9l90-248h61L250 0h-51zm-33-102l-36-108c-10 38-24 72-36 108h72" id="D"/><path d="M12 0v-35l95-120H19v-35h142v35L67-36h103V0H12" id="E"/><path d="M85 4C-2 5 27-109 22-190h50c7 57-23 150 33 157 60-5 35-97 40-157h50l1 190h-47c-2-12 1-28-3-38-12 25-28 42-61 42" id="F"/><path d="M135-150c-39-12-60 13-60 57V0H25l-1-190h47c2 13-1 29 3 40 6-28 27-53 61-41v41" id="G"/><path d="M185-48c-13 30-37 53-82 52C43 2 14-33 14-96s30-98 90-98c62 0 83 45 84 108H66c0 31 8 55 39 56 18 0 30-7 34-22zm-45-69c5-46-57-63-70-21-2 6-4 13-4 21h74" id="H"/><g id="a"><use transform="matrix(0.16111111111111084,0,0,0.16111111111111084,0,0)" xlink:href="#D"/><use transform="matrix(0.16111111111111084,0,0,0.16111111111111084,41.72777777777771,0)" xlink:href="#E"/><use transform="matrix(0.16111111111111084,0,0,0.16111111111111084,70.72777777777766,0)" xlink:href="#F"/><use transform="matrix(0.16111111111111084,0,0,0.16111111111111084,106.01111111111094,0)" xlink:href="#G"/><use transform="matrix(0.16111111111111084,0,0,0.16111111111111084,128.56666666666646,0)" xlink:href="#H"/></g><path d="M67-125c0 53 21 87 73 88 37 1 54-22 65-47l45 17C233-25 199 4 140 4 58 4 20-42 15-125 8-235 124-281 211-232c18 10 29 29 36 50l-46 12c-8-25-30-41-62-41-52 0-71 34-72 86" id="I"/><path d="M25 0v-261h50V0H25" id="J"/><path d="M110-194c64 0 96 36 96 99 0 64-35 99-97 99-61 0-95-36-95-99 0-62 34-99 96-99zm-1 164c35 0 45-28 45-65 0-40-10-65-43-65-34 0-45 26-45 65 0 36 10 65 43 65" id="K"/><path d="M88-194c31-1 46 15 58 34l-1-101h50l1 261h-48c-2-10 0-23-3-31C134-8 116 4 84 4 32 4 16-41 15-95c0-56 19-97 73-99zm17 164c33 0 40-30 41-66 1-37-9-64-41-64s-38 30-39 65c0 43 13 65 39 65" id="L"/><g id="b"><use transform="matrix(0.16111111111111084,0,0,0.16111111111111084,0,0)" xlink:href="#I"/><use transform="matrix(0.16111111111111084,0,0,0.16111111111111084,41.72777777777771,0)" xlink:href="#J"/><use transform="matrix(0.16111111111111084,0,0,0.16111111111111084,57.838888888888796,0)" xlink:href="#K"/><use transform="matrix(0.16111111111111084,0,0,0.16111111111111084,93.12222222222206,0)" xlink:href="#F"/><use transform="matrix(0.16111111111111084,0,0,0.16111111111111084,128.40555555555534,0)" xlink:href="#L"/></g><path fill="#a9afb8" d="M140-251c80 0 125 45 125 126S219 4 139 4C58 4 15-44 15-125s44-126 125-126zm-1 214c52 0 73-35 73-88 0-50-21-86-72-86-52 0-73 35-73 86s22 88 72 88" id="M"/><path fill="#a9afb8" d="M135-194c53 0 70 44 70 98 0 56-19 98-73 100-31 1-45-17-59-34 3 33 2 69 2 105H25l-1-265h48c2 10 0 23 3 31 11-24 29-35 60-35zM114-30c33 0 39-31 40-66 0-38-9-64-40-64-56 0-55 130 0 130" id="N"/><path fill="#a9afb8" d="M115-3C79 11 28 4 28-45v-112H4v-33h27l15-45h31v45h36v33H77v99c-1 23 16 31 38 25v30" id="O"/><path fill="#a9afb8" d="M25-224v-37h50v37H25zM25 0v-190h50V0H25" id="P"/><path fill="#a9afb8" d="M220-157c-53 9-28 100-34 157h-49v-107c1-27-5-49-29-50C55-147 81-57 75 0H25l-1-190h47c2 12-1 28 3 38 10-53 101-56 108 0 13-22 24-43 59-42 82 1 51 116 57 194h-49v-107c-1-25-5-48-29-50" id="Q"/><path fill="#a9afb8" d="M12 0v-35l95-120H19v-35h142v35L67-36h103V0H12" id="R"/><path fill="#a9afb8" d="M135-194c87-1 58 113 63 194h-50c-7-57 23-157-34-157-59 0-34 97-39 157H25l-1-190h47c2 12-1 28 3 38 12-26 28-41 61-42" id="S"/><path fill="#a9afb8" d="M195-6C206 82 75 100 31 46c-4-6-6-13-8-21l49-6c3 16 16 24 34 25 40 0 42-37 40-79-11 22-30 35-61 35-53 0-70-43-70-97 0-56 18-96 73-97 30 0 46 14 59 34l2-30h47zm-90-29c32 0 41-27 41-63 0-35-9-62-40-62-32 0-39 29-40 63 0 36 9 62 39 62" id="T"/><g id="c"><use transform="matrix(0.0728395061728395,0,0,0.0728395061728395,0,0)" xlink:href="#M"/><use transform="matrix(0.0728395061728395,0,0,0.0728395061728395,20.39506172839506,0)" xlink:href="#N"/><use transform="matrix(0.0728395061728395,0,0,0.0728395061728395,36.34691358024691,0)" xlink:href="#O"/><use transform="matrix(0.0728395061728395,0,0,0.0728395061728395,45.01481481481481,0)" xlink:href="#P"/><use transform="matrix(0.0728395061728395,0,0,0.0728395061728395,52.29876543209876,0)" xlink:href="#Q"/><use transform="matrix(0.0728395061728395,0,0,0.0728395061728395,75.60740740740741,0)" xlink:href="#P"/><use transform="matrix(0.0728395061728395,0,0,0.0728395061728395,82.89135802469136,0)" xlink:href="#R"/><use transform="matrix(0.0728395061728395,0,0,0.0728395061728395,96.00246913580247,0)" xlink:href="#P"/><use transform="matrix(0.0728395061728395,0,0,0.0728395061728395,103.28641975308642,0)" xlink:href="#S"/><use transform="matrix(0.0728395061728395,0,0,0.0728395061728395,119.23827160493828,0)" xlink:href="#T"/></g><path fill="#a9afb8" d="M230 0l2-204L168 0h-37L68-204 70 0H24v-248h70l56 185 57-185h69V0h-46" id="U"/><path fill="#a9afb8" d="M24 0v-248h52v208h133V0H24" id="V"/><g id="d"><use transform="matrix(0.0728395061728395,0,0,0.0728395061728395,0,0)" xlink:href="#U"/><use transform="matrix(0.0728395061728395,0,0,0.0728395061728395,21.77901234567901,0)" xlink:href="#V"/></g><path fill="#a9afb8" d="M24-248c93 1 206-16 204 79-1 75-69 88-152 82V0H24v-248zm52 121c47 0 100 7 100-41 0-47-54-39-100-39v80" id="W"/><path fill="#a9afb8" d="M185-48c-13 30-37 53-82 52C43 2 14-33 14-96s30-98 90-98c62 0 83 45 84 108H66c0 31 8 55 39 56 18 0 30-7 34-22zm-45-69c5-46-57-63-70-21-2 6-4 13-4 21h74" id="X"/><path fill="#a9afb8" d="M25 0v-261h50V0H25" id="Y"/><g id="e"><use transform="matrix(0.0728395061728395,0,0,0.0728395061728395,0,0)" xlink:href="#W"/><use transform="matrix(0.0728395061728395,0,0,0.0728395061728395,17.48148148148148,0)" xlink:href="#P"/><use transform="matrix(0.0728395061728395,0,0,0.0728395061728395,24.76543209876543,0)" xlink:href="#N"/><use transform="matrix(0.0728395061728395,0,0,0.0728395061728395,40.717283950617286,0)" xlink:href="#X"/><use transform="matrix(0.0728395061728395,0,0,0.0728395061728395,55.28518518518518,0)" xlink:href="#Y"/><use transform="matrix(0.0728395061728395,0,0,0.0728395061728395,62.56913580246913,0)" xlink:href="#P"/><use transform="matrix(0.0728395061728395,0,0,0.0728395061728395,69.85308641975308,0)" xlink:href="#S"/><use transform="matrix(0.0728395061728395,0,0,0.0728395061728395,85.80493827160494,0)" xlink:href="#X"/></g><g id="f"><use transform="matrix(0.0728395061728395,0,0,0.0728395061728395,0,0)" xlink:href="#P"/><use transform="matrix(0.0728395061728395,0,0,0.0728395061728395,7.28395061728395,0)" xlink:href="#S"/></g><path fill="#a9afb8" d="M199 0l-22-63H83L61 0H9l90-248h61L250 0h-51zm-33-102l-36-108c-10 38-24 72-36 108h72" id="Z"/><path fill="#a9afb8" d="M85 4C-2 5 27-109 22-190h50c7 57-23 150 33 157 60-5 35-97 40-157h50l1 190h-47c-2-12 1-28-3-38-12 25-28 42-61 42" id="aa"/><path fill="#a9afb8" d="M135-150c-39-12-60 13-60 57V0H25l-1-190h47c2 13-1 29 3 40 6-28 27-53 61-41v41" id="ab"/><g id="g"><use transform="matrix(0.0728395061728395,0,0,0.0728395061728395,0,0)" xlink:href="#Z"/><use transform="matrix(0.0728395061728395,0,0,0.0728395061728395,18.86543209876543,0)" xlink:href="#R"/><use transform="matrix(0.0728395061728395,0,0,0.0728395061728395,31.976543209876542,0)" xlink:href="#aa"/><use transform="matrix(0.0728395061728395,0,0,0.0728395061728395,47.928395061728395,0)" xlink:href="#ab"/><use transform="matrix(0.0728395061728395,0,0,0.0728395061728395,58.12592592592593,0)" xlink:href="#X"/></g><path fill="#a9afb8" d="M197 0v-115H63V0H30v-248h33v105h134v-105h34V0h-34" id="ac"/><path fill="#a9afb8" d="M141-36C126-15 110 5 73 4 37 3 15-17 15-53c-1-64 63-63 125-63 3-35-9-54-41-54-24 1-41 7-42 31l-33-3c5-37 33-52 76-52 45 0 72 20 72 64v82c-1 20 7 32 28 27v20c-31 9-61-2-59-35zM48-53c0 20 12 33 32 33 41-3 63-29 60-74-43 2-92-5-92 41" id="ad"/><path fill="#a9afb8" d="M210-169c-67 3-38 105-44 169h-31v-121c0-29-5-50-35-48C34-165 62-65 56 0H25l-1-190h30c1 10-1 24 2 32 10-44 99-50 107 0 11-21 27-35 58-36 85-2 47 119 55 194h-31v-121c0-29-5-49-35-48" id="ae"/><path fill="#a9afb8" d="M85-194c31 0 48 13 60 33l-1-100h32l1 261h-30c-2-10 0-23-3-31C134-8 116 4 85 4 32 4 16-35 15-94c0-66 23-100 70-100zm9 24c-40 0-46 34-46 75 0 40 6 74 45 74 42 0 51-32 51-76 0-42-9-74-50-73" id="af"/><path fill="#a9afb8" d="M179-190L93 31C79 59 56 82 12 73V49c39 6 53-20 64-50L1-190h34L92-34l54-156h33" id="ag"/><g id="h"><use transform="matrix(0.04248971193415638,0,0,0.04248971193415638,0,0)" xlink:href="#ac"/><use transform="matrix(0.04248971193415638,0,0,0.04248971193415638,11.004835390946502,0)" xlink:href="#ad"/><use transform="matrix(0.04248971193415638,0,0,0.04248971193415638,19.502777777777776,0)" xlink:href="#ae"/><use transform="matrix(0.04248971193415638,0,0,0.04248971193415638,32.20720164609053,0)" xlink:href="#af"/><use transform="matrix(0.04248971193415638,0,0,0.04248971193415638,40.70514403292181,0)" xlink:href="#ag"/></g><path fill="#a9afb8" d="M127-220V0H93v-220H8v-28h204v28h-85" id="ah"/><path fill="#a9afb8" d="M206 0h-36l-40-164L89 0H53L-1-190h32L70-26l43-164h34l41 164 42-164h31" id="ai"/><path fill="#a9afb8" d="M101-234c-31-9-42 10-38 44h38v23H63V0H32v-167H5v-23h27c-7-52 17-82 69-68v24" id="aj"/><path fill="#a9afb8" d="M100-194c63 0 86 42 84 106H49c0 40 14 67 53 68 26 1 43-12 49-29l28 8c-11 28-37 45-77 45C44 4 14-33 15-96c1-61 26-98 85-98zm52 81c6-60-76-77-97-28-3 7-6 17-6 28h103" id="ak"/><path fill="#a9afb8" d="M143 0L79-87 56-68V0H24v-261h32v163l83-92h37l-77 82L181 0h-38" id="al"/><g id="i"><use transform="matrix(0.04248971193415638,0,0,0.04248971193415638,0,0)" xlink:href="#ah"/><use transform="matrix(0.04248971193415638,0,0,0.04248971193415638,7.605658436213991,0)" xlink:href="#ad"/><use transform="matrix(0.04248971193415638,0,0,0.04248971193415638,16.103600823045266,0)" xlink:href="#ai"/><use transform="matrix(0.04248971193415638,0,0,0.04248971193415638,27.108436213991762,0)" xlink:href="#aj"/><use transform="matrix(0.04248971193415638,0,0,0.04248971193415638,31.357407407407408,0)" xlink:href="#ak"/><use transform="matrix(0.04248971193415638,0,0,0.04248971193415638,39.85534979423868,0)" xlink:href="#ak"/><use transform="matrix(0.04248971193415638,0,0,0.04248971193415638,48.35329218106995,0)" xlink:href="#al"/></g><path fill="#a9afb8" d="M32 76v-337h29V76H32" id="am"/><use transform="matrix(0.04248971193415638,0,0,0.04248971193415638,0,0)" xlink:href="#am" id="j"/><path fill="#a9afb8" d="M185-189c-5-48-123-54-124 2 14 75 158 14 163 119 3 78-121 87-175 55-17-10-28-26-33-46l33-7c5 56 141 63 141-1 0-78-155-14-162-118-5-82 145-84 179-34 5 7 8 16 11 25" id="an"/><path fill="#a9afb8" d="M115-194c55 1 70 41 70 98S169 2 115 4C84 4 66-9 55-30l1 105H24l-1-265h31l2 30c10-21 28-34 59-34zm-8 174c40 0 45-34 45-75s-6-73-45-74c-42 0-51 32-51 76 0 43 10 73 51 73" id="ao"/><path fill="#a9afb8" d="M59-47c-2 24 18 29 38 22v24C64 9 27 4 27-40v-127H5v-23h24l9-43h21v43h35v23H59v120" id="ap"/><path fill="#a9afb8" d="M115-194c53 0 69 39 70 98 0 66-23 100-70 100C84 3 66-7 56-30L54 0H23l1-261h32v101c10-23 28-34 59-34zm-8 174c40 0 45-34 45-75 0-40-5-75-45-74-42 0-51 32-51 76 0 43 10 73 51 73" id="aq"/><path fill="#a9afb8" d="M114-163C36-179 61-72 57 0H25l-1-190h30c1 12-1 29 2 39 6-27 23-49 58-41v29" id="ar"/><g id="k"><use transform="matrix(0.04248971193415638,0,0,0.04248971193415638,0,0)" xlink:href="#an"/><use transform="matrix(0.04248971193415638,0,0,0.04248971193415638,10.19753086419753,0)" xlink:href="#ak"/><use transform="matrix(0.04248971193415638,0,0,0.04248971193415638,18.695473251028805,0)" xlink:href="#ao"/><use transform="matrix(0.04248971193415638,0,0,0.04248971193415638,27.193415637860078,0)" xlink:href="#ap"/><use transform="matrix(0.04248971193415638,0,0,0.04248971193415638,31.442386831275712,0)" xlink:href="#ak"/><use transform="matrix(0.04248971193415638,0,0,0.04248971193415638,39.94032921810699,0)" xlink:href="#ae"/><use transform="matrix(0.04248971193415638,0,0,0.04248971193415638,52.64475308641975,0)" xlink:href="#aq"/><use transform="matrix(0.04248971193415638,0,0,0.04248971193415638,61.142695473251024,0)" xlink:href="#ak"/><use transform="matrix(0.04248971193415638,0,0,0.04248971193415638,69.6406378600823,0)" xlink:href="#ar"/></g><path fill="#a9afb8" d="M126-127c33 6 58 20 58 59 0 88-139 92-164 29-3-8-5-16-6-25l32-3c6 27 21 44 54 44 32 0 52-15 52-46 0-38-36-46-79-43v-28c39 1 72-4 72-42 0-27-17-43-46-43-28 0-47 15-49 41l-32-3c6-42 35-63 81-64 48-1 79 21 79 65 0 36-21 52-52 59" id="as"/><path fill="#a9afb8" d="M101-251c68 0 85 55 85 127S166 4 100 4C33 4 14-52 14-124c0-73 17-127 87-127zm-1 229c47 0 54-49 54-102s-4-102-53-102c-51 0-55 48-55 102 0 53 5 102 54 102" id="at"/><path fill="#a9afb8" d="M68-38c1 34 0 65-14 84H32c9-13 17-26 17-46H33v-38h35" id="au"/><g id="l"><use transform="matrix(0.04248971193415638,0,0,0.04248971193415638,0,0)" xlink:href="#as"/><use transform="matrix(0.04248971193415638,0,0,0.04248971193415638,8.497942386831275,0)" xlink:href="#at"/><use transform="matrix(0.04248971193415638,0,0,0.04248971193415638,16.99588477366255,0)" xlink:href="#au"/></g><path fill="#a9afb8" d="M101-251c82-7 93 87 43 132L82-64C71-53 59-42 53-27h129V0H18c2-99 128-94 128-182 0-28-16-43-45-43s-46 15-49 41l-32-3c6-41 34-60 81-64" id="av"/><g id="m"><use transform="matrix(0.04248971193415638,0,0,0.04248971193415638,0,0)" xlink:href="#av"/><use transform="matrix(0.04248971193415638,0,0,0.04248971193415638,8.497942386831275,0)" xlink:href="#at"/><use transform="matrix(0.04248971193415638,0,0,0.04248971193415638,16.99588477366255,0)" xlink:href="#av"/><use transform="matrix(0.04248971193415638,0,0,0.04248971193415638,25.493827160493822,0)" xlink:href="#at"/></g><path d="M127-220V0H93v-220H8v-28h204v28h-85" id="aw"/><path d="M100-194c63 0 86 42 84 106H49c0 40 14 67 53 68 26 1 43-12 49-29l28 8c-11 28-37 45-77 45C44 4 14-33 15-96c1-61 26-98 85-98zm52 81c6-60-76-77-97-28-3 7-6 17-6 28h103" id="ax"/><path d="M141 0L90-78 38 0H4l68-98-65-92h35l48 74 47-74h35l-64 92 68 98h-35" id="ay"/><path d="M59-47c-2 24 18 29 38 22v24C64 9 27 4 27-40v-127H5v-23h24l9-43h21v43h35v23H59v120" id="az"/><g id="n"><use transform="matrix(0.05,0,0,0.05,0,0)" xlink:href="#aw"/><use transform="matrix(0.05,0,0,0.05,8.950000000000001,0)" xlink:href="#ax"/><use transform="matrix(0.05,0,0,0.05,18.950000000000003,0)" xlink:href="#ay"/><use transform="matrix(0.05,0,0,0.05,27.950000000000003,0)" xlink:href="#az"/></g><path d="M136-208V0H84v-208H4v-40h212v40h-80" id="aA"/><path d="M133-34C117-15 103 5 69 4 32 3 11-16 11-54c-1-60 55-63 116-61 1-26-3-47-28-47-18 1-26 9-28 27l-52-2c7-38 36-58 82-57s74 22 75 68l1 82c-1 14 12 18 25 15v27c-30 8-71 5-69-32zm-48 3c29 0 43-24 42-57-32 0-66-3-65 30 0 17 8 27 23 27" id="aB"/><path d="M135-194c52 0 70 43 70 98 0 56-19 99-73 100-30 1-46-15-58-35L72 0H24l1-261h50v104c11-23 29-37 60-37zM114-30c31 0 40-27 40-66 0-37-7-63-39-63s-41 28-41 65c0 36 8 64 40 64" id="aC"/><g id="o"><use transform="matrix(0.05,0,0,0.05,0,0)" xlink:href="#aA"/><use transform="matrix(0.05,0,0,0.05,9.600000000000001,0)" xlink:href="#aB"/><use transform="matrix(0.05,0,0,0.05,19.6,0)" xlink:href="#aC"/><use transform="matrix(0.05,0,0,0.05,30.55,0)" xlink:href="#F"/><use transform="matrix(0.05,0,0,0.05,41.50000000000001,0)" xlink:href="#J"/><use transform="matrix(0.05,0,0,0.05,46.50000000000001,0)" xlink:href="#aB"/><use transform="matrix(0.05,0,0,0.05,56.5,0)" xlink:href="#G"/></g><path d="M24-248c120-7 223 5 221 122C244-46 201 0 124 0H24v-248zM76-40c74 7 117-18 117-86 0-67-45-88-117-82v168" id="aD"/><path d="M115-3C79 11 28 4 28-45v-112H4v-33h27l15-45h31v45h36v33H77v99c-1 23 16 31 38 25v30" id="aE"/><path d="M137-138c1-29-70-34-71-4 15 46 118 7 119 86 1 83-164 76-172 9l43-7c4 19 20 25 44 25 33 8 57-30 24-41C81-84 22-81 20-136c-2-80 154-74 161-7" id="aF"/><g id="p"><use transform="matrix(0.05,0,0,0.05,0,0)" xlink:href="#aD"/><use transform="matrix(0.05,0,0,0.05,12.950000000000001,0)" xlink:href="#aB"/><use transform="matrix(0.05,0,0,0.05,22.950000000000003,0)" xlink:href="#aE"/><use transform="matrix(0.05,0,0,0.05,28.900000000000002,0)" xlink:href="#aB"/><use transform="matrix(0.05,0,0,0.05,38.900000000000006,0)" xlink:href="#aF"/><use transform="matrix(0.05,0,0,0.05,48.900000000000006,0)" xlink:href="#H"/><use transform="matrix(0.05,0,0,0.05,58.900000000000006,0)" xlink:href="#aE"/></g><path d="M230 0l2-204L168 0h-37L68-204 70 0H24v-248h70l56 185 57-185h69V0h-46" id="aG"/><path d="M24 0v-248h52v208h133V0H24" id="aH"/><g id="q"><use transform="matrix(0.05,0,0,0.05,0,0)" xlink:href="#D"/><use transform="matrix(0.05,0,0,0.05,12.950000000000001,0)" xlink:href="#F"/><use transform="matrix(0.05,0,0,0.05,23.900000000000002,0)" xlink:href="#aE"/><use transform="matrix(0.05,0,0,0.05,29.85,0)" xlink:href="#K"/><use transform="matrix(0.05,0,0,0.05,40.800000000000004,0)" xlink:href="#aG"/><use transform="matrix(0.05,0,0,0.05,55.75,0)" xlink:href="#aH"/></g><g id="r"><use transform="matrix(0.05,0,0,0.05,0,0)" xlink:href="#D"/><use transform="matrix(0.05,0,0,0.05,12.950000000000001,0)" xlink:href="#F"/><use transform="matrix(0.05,0,0,0.05,23.900000000000002,0)" xlink:href="#aE"/><use transform="matrix(0.05,0,0,0.05,29.85,0)" xlink:href="#K"/><use transform="matrix(0.05,0,0,0.05,40.800000000000004,0)" xlink:href="#aG"/><use transform="matrix(0.05,0,0,0.05,55.75,0)" xlink:href="#aH"/></g><g id="s"><use transform="matrix(0.05,0,0,0.05,0,0)" xlink:href="#aG"/><use transform="matrix(0.05,0,0,0.05,14.950000000000001,0)" xlink:href="#K"/><use transform="matrix(0.05,0,0,0.05,25.900000000000002,0)" xlink:href="#L"/><use transform="matrix(0.05,0,0,0.05,36.85,0)" xlink:href="#H"/><use transform="matrix(0.05,0,0,0.05,46.85,0)" xlink:href="#J"/></g><path d="M186 0v-106H76V0H24v-248h52v99h110v-99h50V0h-50" id="aI"/><path d="M123 10C108 53 80 86 19 72V37c35 8 53-11 59-39L3-190h52l48 148c12-52 28-100 44-148h51" id="aJ"/><path d="M135-194c53 0 70 44 70 98 0 56-19 98-73 100-31 1-45-17-59-34 3 33 2 69 2 105H25l-1-265h48c2 10 0 23 3 31 11-24 29-35 60-35zM114-30c33 0 39-31 40-66 0-38-9-64-40-64-56 0-55 130 0 130" id="aK"/><g id="t"><use transform="matrix(0.05,0,0,0.05,0,0)" xlink:href="#aI"/><use transform="matrix(0.05,0,0,0.05,12.950000000000001,0)" xlink:href="#aJ"/><use transform="matrix(0.05,0,0,0.05,22.950000000000003,0)" xlink:href="#aK"/><use transform="matrix(0.05,0,0,0.05,33.900000000000006,0)" xlink:href="#H"/><use transform="matrix(0.05,0,0,0.05,43.900000000000006,0)" xlink:href="#G"/></g><path d="M25-224v-37h50v37H25zM25 0v-190h50V0H25" id="aL"/><path d="M128 0H69L1-190h53L99-40l48-150h52" id="aM"/><g id="u"><use transform="matrix(0.05,0,0,0.05,0,0)" xlink:href="#aD"/><use transform="matrix(0.05,0,0,0.05,12.950000000000001,0)" xlink:href="#G"/><use transform="matrix(0.05,0,0,0.05,19.950000000000003,0)" xlink:href="#aL"/><use transform="matrix(0.05,0,0,0.05,24.950000000000003,0)" xlink:href="#aM"/><use transform="matrix(0.05,0,0,0.05,34.95,0)" xlink:href="#H"/></g><g id="v"><use transform="matrix(0.05,0,0,0.05,0,0)" xlink:href="#aD"/><use transform="matrix(0.05,0,0,0.05,12.950000000000001,0)" xlink:href="#G"/><use transform="matrix(0.05,0,0,0.05,19.950000000000003,0)" xlink:href="#aL"/><use transform="matrix(0.05,0,0,0.05,24.950000000000003,0)" xlink:href="#aM"/><use transform="matrix(0.05,0,0,0.05,34.95,0)" xlink:href="#H"/></g><path d="M169-182c-1-43-94-46-97-3 18 66 151 10 154 114 3 95-165 93-204 36-6-8-10-19-12-30l50-8c3 46 112 56 116 5-17-69-150-10-154-114-4-87 153-88 188-35 5 8 8 18 10 28" id="aN"/><path d="M190-63c-7 42-38 67-86 67-59 0-84-38-90-98-12-110 154-137 174-36l-49 2c-2-19-15-32-35-32-30 0-35 28-38 64-6 74 65 87 74 30" id="aO"/><path d="M147 0L96-86 75-71V0H25v-261h50v150l67-79h53l-66 74L201 0h-54" id="aP"/><path d="M14-72v-43h91v43H14" id="aQ"/><path d="M135-194c87-1 58 113 63 194h-50c-7-57 23-157-34-157-59 0-34 97-39 157H25l-1-190h47c2 12-1 28 3 38 12-26 28-41 61-42" id="aR"/><g id="w"><use transform="matrix(0.05,0,0,0.05,0,0)" xlink:href="#aN"/><use transform="matrix(0.05,0,0,0.05,12,0)" xlink:href="#aO"/><use transform="matrix(0.05,0,0,0.05,22,0)" xlink:href="#aL"/><use transform="matrix(0.05,0,0,0.05,27,0)" xlink:href="#aP"/><use transform="matrix(0.05,0,0,0.05,37,0)" xlink:href="#aL"/><use transform="matrix(0.05,0,0,0.05,42,0)" xlink:href="#aE"/><use transform="matrix(0.05,0,0,0.05,47.95,0)" xlink:href="#aQ"/><use transform="matrix(0.05,0,0,0.05,53.900000000000006,0)" xlink:href="#J"/><use transform="matrix(0.05,0,0,0.05,58.900000000000006,0)" xlink:href="#H"/><use transform="matrix(0.05,0,0,0.05,68.9,0)" xlink:href="#aB"/><use transform="matrix(0.05,0,0,0.05,78.9,0)" xlink:href="#G"/><use transform="matrix(0.05,0,0,0.05,85.9,0)" xlink:href="#aR"/></g><path d="M195-6C206 82 75 100 31 46c-4-6-6-13-8-21l49-6c3 16 16 24 34 25 40 0 42-37 40-79-11 22-30 35-61 35-53 0-70-43-70-97 0-56 18-96 73-97 30 0 46 14 59 34l2-30h47zm-90-29c32 0 41-27 41-63 0-35-9-62-40-62-32 0-39 29-40 63 0 36 9 62 39 62" id="aS"/><g id="x"><use transform="matrix(0.05,0,0,0.05,0,0)" xlink:href="#aH"/><use transform="matrix(0.05,0,0,0.05,10.950000000000001,0)" xlink:href="#K"/><use transform="matrix(0.05,0,0,0.05,21.900000000000002,0)" xlink:href="#aS"/><use transform="matrix(0.05,0,0,0.05,32.85,0)" xlink:href="#aL"/><use transform="matrix(0.05,0,0,0.05,37.85,0)" xlink:href="#aF"/><use transform="matrix(0.05,0,0,0.05,47.85,0)" xlink:href="#aE"/><use transform="matrix(0.05,0,0,0.05,53.800000000000004,0)" xlink:href="#aL"/><use transform="matrix(0.05,0,0,0.05,58.800000000000004,0)" xlink:href="#aO"/></g><path d="M240-174c0 40-23 61-54 70L253 0h-59l-57-94H76V0H24v-248c93 4 217-23 216 74zM76-134c48-2 112 12 112-38 0-48-66-32-112-35v73" id="aT"/><g id="y"><use transform="matrix(0.05,0,0,0.05,0,0)" xlink:href="#aT"/><use transform="matrix(0.05,0,0,0.05,12.950000000000001,0)" xlink:href="#H"/><use transform="matrix(0.05,0,0,0.05,22.950000000000003,0)" xlink:href="#aS"/><use transform="matrix(0.05,0,0,0.05,33.900000000000006,0)" xlink:href="#G"/><use transform="matrix(0.05,0,0,0.05,40.900000000000006,0)" xlink:href="#H"/><use transform="matrix(0.05,0,0,0.05,50.900000000000006,0)" xlink:href="#aF"/><use transform="matrix(0.05,0,0,0.05,60.900000000000006,0)" xlink:href="#aF"/><use transform="matrix(0.05,0,0,0.05,70.9,0)" xlink:href="#aL"/><use transform="matrix(0.05,0,0,0.05,75.9,0)" xlink:href="#K"/><use transform="matrix(0.05,0,0,0.05,86.85000000000001,0)" xlink:href="#aR"/></g><path d="M114-157C55-157 80-60 75 0H25v-261h50l-1 109c12-26 28-41 61-42 86-1 58 113 63 194h-50c-7-57 23-157-34-157" id="aU"/><g id="z"><use transform="matrix(0.08703703703703701,0,0,0.08703703703703701,0,0)" xlink:href="#aT"/><use transform="matrix(0.08703703703703701,0,0,0.08703703703703701,22.542592592592584,0)" xlink:href="#H"/><use transform="matrix(0.08703703703703701,0,0,0.08703703703703701,39.94999999999999,0)" xlink:href="#aF"/><use transform="matrix(0.08703703703703701,0,0,0.08703703703703701,57.357407407407386,0)" xlink:href="#H"/><use transform="matrix(0.08703703703703701,0,0,0.08703703703703701,74.7648148148148,0)" xlink:href="#aB"/><use transform="matrix(0.08703703703703701,0,0,0.08703703703703701,92.17222222222219,0)" xlink:href="#G"/><use transform="matrix(0.08703703703703701,0,0,0.08703703703703701,104.35740740740738,0)" xlink:href="#aO"/><use transform="matrix(0.08703703703703701,0,0,0.08703703703703701,121.76481481481478,0)" xlink:href="#aU"/></g><g id="A"><use transform="matrix(0.08703703703703701,0,0,0.08703703703703701,0,0)" xlink:href="#aT"/><use transform="matrix(0.08703703703703701,0,0,0.08703703703703701,22.542592592592584,0)" xlink:href="#H"/><use transform="matrix(0.08703703703703701,0,0,0.08703703703703701,39.94999999999999,0)" xlink:href="#aK"/><use transform="matrix(0.08703703703703701,0,0,0.08703703703703701,59.01111111111109,0)" xlink:href="#K"/><use transform="matrix(0.08703703703703701,0,0,0.08703703703703701,78.0722222222222,0)" xlink:href="#G"/><use transform="matrix(0.08703703703703701,0,0,0.08703703703703701,90.25740740740738,0)" xlink:href="#aE"/></g><path fill="#0078d7" d="M59-47c-2 24 18 29 38 22v24C64 9 27 4 27-40v-127H5v-23h24l9-43h21v43h35v23H59v120" id="aV"/><path fill="#0078d7" d="M114-163C36-179 61-72 57 0H25l-1-190h30c1 12-1 29 2 39 6-27 23-49 58-41v29" id="aW"/><path fill="#0078d7" d="M141-36C126-15 110 5 73 4 37 3 15-17 15-53c-1-64 63-63 125-63 3-35-9-54-41-54-24 1-41 7-42 31l-33-3c5-37 33-52 76-52 45 0 72 20 72 64v82c-1 20 7 32 28 27v20c-31 9-61-2-59-35zM48-53c0 20 12 33 32 33 41-3 63-29 60-74-43 2-92-5-92 41" id="aX"/><path fill="#0078d7" d="M24-231v-30h32v30H24zM24 0v-190h32V0H24" id="aY"/><path fill="#0078d7" d="M117-194c89-4 53 116 60 194h-32v-121c0-31-8-49-39-48C34-167 62-67 57 0H25l-1-190h30c1 10-1 24 2 32 11-22 29-35 61-36" id="aZ"/><path fill="#0078d7" d="M33 0v-38h34V0H33" id="ba"/><path fill="#0078d7" d="M115-194c55 1 70 41 70 98S169 2 115 4C84 4 66-9 55-30l1 105H24l-1-265h31l2 30c10-21 28-34 59-34zm-8 174c40 0 45-34 45-75s-6-73-45-74c-42 0-51 32-51 76 0 43 10 73 51 73" id="bb"/><path fill="#0078d7" d="M179-190L93 31C79 59 56 82 12 73V49c39 6 53-20 64-50L1-190h34L92-34l54-156h33" id="bc"/><g id="B"><use transform="matrix(0.05,0,0,0.05,0,0)" xlink:href="#aV"/><use transform="matrix(0.05,0,0,0.05,5,0)" xlink:href="#aW"/><use transform="matrix(0.05,0,0,0.05,10.95,0)" xlink:href="#aX"/><use transform="matrix(0.05,0,0,0.05,20.95,0)" xlink:href="#aY"/><use transform="matrix(0.05,0,0,0.05,24.9,0)" xlink:href="#aZ"/><use transform="matrix(0.05,0,0,0.05,34.9,0)" xlink:href="#ba"/><use transform="matrix(0.05,0,0,0.05,39.9,0)" xlink:href="#bb"/><use transform="matrix(0.05,0,0,0.05,49.9,0)" xlink:href="#bc"/></g><path fill="#0078d7" d="M190 0L58-211 59 0H30v-248h39L202-35l-2-213h31V0h-41" id="bd"/><path fill="#0078d7" d="M100-194c62-1 85 37 85 99 1 63-27 99-86 99S16-35 15-95c0-66 28-99 85-99zM99-20c44 1 53-31 53-75 0-43-8-75-51-75s-53 32-53 75 10 74 51 75" id="be"/><path fill="#0078d7" d="M100-194c63 0 86 42 84 106H49c0 40 14 67 53 68 26 1 43-12 49-29l28 8c-11 28-37 45-77 45C44 4 14-33 15-96c1-61 26-98 85-98zm52 81c6-60-76-77-97-28-3 7-6 17-6 28h103" id="bf"/><path fill="#0078d7" d="M115-194c53 0 69 39 70 98 0 66-23 100-70 100C84 3 66-7 56-30L54 0H23l1-261h32v101c10-23 28-34 59-34zm-8 174c40 0 45-34 45-75 0-40-5-75-45-74-42 0-51 32-51 76 0 43 10 73 51 73" id="bg"/><path fill="#0078d7" d="M143 0L79-87 56-68V0H24v-261h32v163l83-92h37l-77 82L181 0h-38" id="bh"/><g id="C"><use transform="matrix(0.05,0,0,0.05,0,0)" xlink:href="#bd"/><use transform="matrix(0.05,0,0,0.05,12.950000000000001,0)" xlink:href="#be"/><use transform="matrix(0.05,0,0,0.05,22.950000000000003,0)" xlink:href="#aV"/><use transform="matrix(0.05,0,0,0.05,27.950000000000003,0)" xlink:href="#bf"/><use transform="matrix(0.05,0,0,0.05,37.95,0)" xlink:href="#bg"/><use transform="matrix(0.05,0,0,0.05,47.95,0)" xlink:href="#be"/><use transform="matrix(0.05,0,0,0.05,57.95,0)" xlink:href="#be"/><use transform="matrix(0.05,0,0,0.05,67.95,0)" xlink:href="#bh"/></g></defs></g></svg>